<svg xmlns="http://www.w3.org/2000/svg" viewBox="0 0 1080 1080"><path fill="none" stroke="#000" stroke-linecap="round" stroke-linejoin="round" stroke-width="3" d="M878 1057.5h-2l-.5-.5-.5-.5h-2l-.5-.5-.5-.5h-1l-.5-.5-.5-.5h-16l-.5-.5-.5-.5h-2l-.5-.5-.5-.5h-2l-.5-.5-.5-.5h-1l-.5.5-.5.5h-9l-.5-.5-.5-.5h-2l-.5-.5-.5-.5h-1l-.5-.5-.5-.5-.5-.5-.5-.5-.5-.5-.5-.5-.5-.5-.5-.5-.5-.5-.5-.5h-1l-.5-.5v-1l-.5-.5-.5-.5.5-.5.5-.5v-2l.5-.5.5-.5v-1l.5-.5.5-.5v-1l.5-.5.5-.5.5-.5.5-.5v-1l.5-.5.5-.5.5-.5.5-.5v-1l.5-.5.5-.5.5-.5.5-.5v-1l.5-.5.5-.5.5-.5.5-.5.5-.5.5-.5v-1l.5-.5.5-.5.5-.5.5-.5.5-.5.5-.5.5-.5.5-.5.5-.5.5-.5.5-.5.5-.5.5-.5.5-.5v-1l.5-.5.5-.5v-1l.5-.5.5-.5-.5-.5h-1l-.5-.5-.5-.5h-1l-.5-.5-.5-.5h-1l-.5-.5-.5-.5-.5-.5-.5-.5-.5-.5v-1l-.5-.5-.5.5-.5.5h-2l-.5-.5-.5-.5-.5-.5-.5-.5-.5-.5-.5-.5-.5-.5-.5-.5-.5-.5-.5-.5-.5-.5v-1l-.5-.5-.5-.5-.5-.5-.5-.5v-1l-.5-.5-.5-.5-.5-.5-.5-.5-.5-.5h-1l-.5-.5-.5-.5-.5-.5-.5-.5h-1l-.5-.5-.5-.5-.5-.5-.5-.5-.5-.5-.5-.5-.5-.5v-2l-.5-.5-.5-.5v-2l-.5-.5-.5-.5-.5-.5h-1l-.5.5-.5.5h-1l-.5.5-.5.5-.5.5-.5.5-.5.5-.5.5h-1l-.5.5-.5.5-.5.5-.5.5h-3l-.5-.5-.5-.5h-3l-.5-.5-.5-.5h-1l-.5-.5-.5-.5-.5-.5-.5-.5-.5-.5v-1l-.5-.5-.5-.5-.5-.5-.5-.5v-1l-.5-.5-.5-.5-.5-.5-.5-.5v-1l-.5-.5-.5-.5-.5-.5-.5-.5v-1l-.5-.5-.5-.5v-1l-.5-.5-.5-.5v-1l-.5-.5-.5-.5v-1l-.5-.5-.5-.5v-2l-.5-.5-.5-.5v-6l-.5-.5-.5-.5-.5-.5-.5-.5-.5-.5-.5-.5v-9l-.5-.5-.5-.5v-1l-.5-.5-.5-.5v-1l-.5-.5-.5-.5-.5-.5-.5-.5-.5-.5-.5-.5-.5-.5-.5-.5-.5-.5-.5-.5-.5-.5-.5-.5-.5-.5-.5-.5-.5-.5-.5-.5-.5-.5-.5-.5-.5-.5h-1l-.5-.5-.5-.5-.5-.5-.5-.5h-1l-.5-.5-.5-.5-.5-.5-.5-.5h-1l-.5-.5-.5-.5h-1l-.5-.5-.5-.5h-7l-.5-.5-.5-.5h-1l-.5-.5-.5-.5h-1l-.5-.5-.5-.5h-1l-.5-.5-.5-.5h-1l-.5-.5-.5-.5h-2l-.5-.5-.5-.5h-3l-.5-.5-.5-.5h-5l-.5.5-.5.5h-4l-.5.5-.5.5h-2l-.5.5-.5.5h-1l-.5.5-.5.5h-1l-.5.5-.5.5-.5.5-.5.5h-1l-.5.5v3l-.5.5-.5.5v1l-.5.5-.5.5v1l-.5.5-.5.5v1l-.5.5-.5.5v1l-.5.5-.5.5v1l-.5.5-.5.5v2l-.5.5-.5.5v7l-.5.5-.5.5v1l-.5.5-.5.5-.5.5-.5.5v1l-.5.5h-1l-.5.5-.5.5h-1l-.5.5-.5.5h-3l-.5.5-.5.5h-9l-.5-.5-.5-.5h-1l-.5-.5v-1l-.5-.5-.5.5v1l-.5.5-.5.5v1l-.5.5-.5.5-.5.5-.5.5-.5.5-.5.5-.5.5h-1l-.5.5-.5.5h-2l-.5-.5-.5-.5h-4l-.5-.5-.5-.5h-2l-.5-.5-.5-.5h-1l-.5-.5-.5-.5h-2l-.5-.5-.5-.5-.5-.5-.5-.5h-1l-.5-.5v-1l-.5-.5-.5-.5v-1l-.5-.5-.5-.5-.5-.5-.5-.5-.5-.5h-1l-.5-.5-.5-.5h-1l-.5-.5-.5-.5h-2l-.5-.5-.5-.5h-2l-.5-.5-.5-.5h-2l-.5-.5-.5-.5h-2l-.5-.5-.5-.5h-1l-.5-.5-.5-.5h-2l-.5-.5-.5-.5h-1l-.5-.5-.5-.5h-1l-.5-.5-.5-.5h-1l-.5-.5-.5-.5-.5-.5-.5-.5h-1l-.5-.5-.5-.5-.5-.5-.5-.5-.5-.5-.5-.5-.5-.5-.5-.5-.5-.5-.5-.5-.5-.5-.5-.5-.5-.5-.5-.5-.5-.5-.5-.5-.5-.5v-1l-.5-.5-.5-.5-.5-.5-.5-.5-.5-.5-.5-.5v-1l-.5-.5-.5-.5-.5-.5-.5-.5v-1l-.5-.5-.5-.5v-7l-.5-.5-.5-.5v-1l-.5-.5-.5-.5-.5-.5-.5-.5v-1l-.5-.5-.5-.5v-3l-.5-.5-.5-.5v-8l-.5-.5-.5-.5v-1l-.5-.5-.5-.5v-1l-.5-.5-.5-.5-.5-.5-.5-.5v-1l-.5-.5-.5-.5-.5-.5-.5-.5-.5-.5-.5-.5-.5-.5-.5-.5-.5-.5-.5-.5v-3l-.5-.5-.5-.5v-9l.5-.5.5-.5v-4l.5-.5.5-.5v-2l.5-.5.5-.5v-1l.5-.5.5-.5v-1l.5-.5.5-.5.5-.5.5-.5v-1l.5-.5.5-.5v-2l.5-.5.5-.5v-4l.5-.5.5-.5v-3l.5-.5.5-.5v-1l.5-.5.5-.5.5-.5.5-.5v-1l.5-.5.5-.5v-1l.5-.5.5-.5v-2l.5-.5.5-.5v-12l-.5-.5-.5-.5v-1l-.5-.5-.5-.5-.5-.5-.5-.5v-12l.5-.5.5-.5v-1l.5-.5.5-.5.5-.5h1l.5-.5.5-.5h1l.5-.5.5-.5h12l.5-.5.5-.5h1l.5-.5.5-.5h1l.5-.5.5-.5.5-.5v-2l-.5-.5-.5-.5v-1l-.5-.5-.5-.5-.5-.5-.5-.5-.5-.5-.5-.5v-1l-.5-.5-.5-.5-.5-.5-.5-.5-.5-.5h-1l-.5-.5-.5-.5-.5-.5-.5-.5-.5-.5-.5-.5h-4l-.5-.5-.5-.5h-1l-.5-.5-.5-.5-.5-.5-.5-.5-.5-.5-.5-.5h-1l-.5-.5-.5-.5-.5-.5-.5-.5-.5-.5-.5-.5h-1l-.5-.5-.5-.5h-1l-.5-.5-.5-.5h-1l-.5-.5-.5-.5h-6l-.5-.5-.5-.5-.5-.5-.5-.5h-1l-.5-.5-.5-.5-.5-.5-.5-.5-.5-.5-.5-.5-.5-.5-.5-.5-.5-.5-.5-.5-.5-.5-.5-.5-.5-.5-.5-.5-.5-.5v-1l-.5-.5-.5-.5v-2l-.5-.5-.5-.5v-2l-.5-.5-.5-.5v-7l-.5-.5-.5-.5v-1l-.5-.5-.5-.5v-1l-.5-.5-.5-.5v-4l.5-.5.5-.5v-2l.5-.5h9l.5-.5.5-.5h1l.5-.5v-6l-.5-.5-.5-.5v-1l-.5-.5-.5-.5-.5-.5-.5-.5-.5-.5-.5-.5-.5-.5-.5-.5v-3l-.5-.5-.5-.5v-17l-.5-.5-.5-.5-.5-.5-.5-.5-.5-.5-.5-.5v-1l-.5-.5-.5-.5-.5-.5-.5-.5-.5-.5h-2l-.5-.5-.5-.5h-3l-.5-.5-.5-.5h-3l-.5-.5-.5-.5h-1l-.5-.5-.5-.5h-1l-.5-.5-.5-.5h-1l-.5-.5-.5-.5-.5-.5-.5-.5h-1l-.5-.5-.5-.5h-1l-.5-.5-.5-.5-.5-.5-.5-.5-.5-.5-.5-.5h-1l-.5-.5-.5-.5-.5-.5-.5-.5-.5-.5-.5-.5h-1l-.5-.5-.5-.5-.5-.5-.5-.5-.5-.5-.5-.5-.5-.5-.5-.5-.5-.5-.5-.5-.5-.5v-1l-.5-.5-.5-.5-.5-.5-.5-.5-.5-.5-.5-.5-.5-.5h-1l-.5-.5-.5-.5-.5-.5-.5-.5h-1l-.5-.5-.5-.5-.5-.5-.5-.5-.5-.5-.5-.5-.5-.5-.5-.5-.5-.5v-1l-.5-.5-.5-.5-.5-.5-.5-.5v-4l-.5-.5-.5-.5-.5-.5-.5-.5-.5-.5-.5-.5v-1l-.5-.5-.5-.5-.5-.5-.5-.5-.5-.5-.5-.5-.5-.5-.5-.5v-1l-.5-.5-.5-.5-.5-.5-.5-.5-.5-.5-.5-.5-.5-.5-.5-.5-.5-.5-.5-.5-.5-.5-.5-.5-.5-.5-.5-.5-.5-.5-.5-.5-.5-.5-.5-.5-.5-.5-.5-.5-.5-.5-.5-.5-.5-.5-.5-.5-.5-.5-.5-.5-.5-.5h-1l-.5-.5-.5-.5h-1l-.5-.5-.5-.5h-2l-.5-.5-.5-.5h-1l-.5-.5-.5-.5-.5-.5-.5-.5-.5-.5-.5-.5-.5-.5-.5-.5-.5-.5v-1l-.5-.5-.5-.5v-1l-.5-.5h-1l-.5-.5-.5-.5h-1l-.5-.5-.5-.5h-1l-.5-.5-.5-.5-.5-.5-.5-.5h-1l-.5-.5-.5-.5-.5-.5-.5-.5-.5-.5-.5-.5-.5-.5-.5-.5-.5-.5-.5-.5h-1l-.5-.5-.5-.5-.5-.5-.5-.5-.5-.5-.5-.5-.5-.5-.5-.5-.5-.5-.5-.5h-1l-.5-.5-.5-.5-.5-.5-.5-.5-.5-.5-.5-.5h-1l-.5-.5-.5-.5h-1l-.5-.5-.5-.5h-1l-.5-.5-.5-.5h-1l-.5-.5-.5-.5h-1l-.5-.5-.5-.5h-1l-.5-.5-.5-.5-.5-.5-.5-.5-.5-.5-.5-.5-.5-.5-.5-.5-.5-.5-.5-.5-.5-.5-.5-.5-.5-.5-.5-.5-.5-.5-.5-.5-.5-.5v-1l-.5-.5-.5-.5-.5-.5-.5-.5-.5-.5h-1l-.5-.5-.5-.5-.5-.5-.5-.5h-1l-.5-.5-.5-.5-.5-.5-.5-.5-.5-.5-.5-.5-.5-.5v-1l-.5-.5-.5-.5v-1l-.5-.5-.5-.5v-1l-.5-.5-.5-.5v-1l-.5-.5-.5-.5-.5-.5-.5-.5-.5-.5-.5-.5-.5-.5-.5-.5-.5-.5h-1l-.5-.5-.5-.5-.5-.5-.5-.5-.5-.5v-3l-.5-.5h-1l-.5-.5-.5-.5-.5-.5-.5-.5h-1l-.5-.5-.5-.5-.5-.5v-1l-.5-.5-.5-.5-.5-.5-.5-.5v-1l-.5-.5-.5-.5v-1l-.5-.5-.5-.5v-1l-.5-.5-.5-.5-.5-.5-.5-.5v-1l-.5-.5-.5-.5-.5-.5-.5-.5-.5-.5-.5-.5v-1l-.5-.5-.5-.5-.5-.5-.5-.5-.5-.5-.5-.5-.5-.5-.5-.5-.5-.5-.5-.5-.5-.5-.5-.5-.5-.5-.5-.5-.5-.5-.5-.5-.5-.5-.5-.5v-1l-.5-.5-.5-.5-.5-.5-.5-.5-.5-.5-.5-.5v-2l-.5-.5h-1l-.5-.5-.5-.5h-1l-.5-.5v-2l-.5-.5-.5-.5-.5-.5-.5.5-.5.5-.5.5-.5.5-.5.5-.5.5h-9l-.5.5-.5.5h-1l-.5.5-.5.5-.5.5-.5.5h-4l-.5-.5-.5-.5h-2l-.5-.5-.5-.5h-1l-.5-.5-.5-.5h-1l-.5-.5-.5-.5-.5-.5-.5-.5h-3l-.5.5-.5.5h-6l-.5-.5-.5-.5h-3l-.5-.5-.5-.5h-1l-.5-.5-.5-.5-.5-.5-.5-.5-.5-.5-.5-.5-.5-.5v-1l-.5-.5-.5-.5v-3l-.5-.5-.5-.5v-1l-.5-.5-.5-.5-.5-.5-.5-.5-.5-.5-.5-.5-.5-.5-.5-.5-.5-.5-.5-.5-.5-.5-.5-.5-.5-.5-.5-.5v-1l-.5-.5-.5-.5-.5-.5-.5-.5v-10l-.5-.5-.5-.5-.5-.5-.5-.5-.5-.5-.5-.5-.5-.5h-3l-.5.5-.5.5h-4l-.5.5-.5.5h-2l-.5.5-.5.5h-8l-.5-.5-.5-.5h-1l-.5-.5-.5-.5-.5-.5-.5-.5-.5-.5-.5-.5-.5-.5v-1l-.5-.5h-3l-.5-.5v-1l-.5-.5h-2l-.5.5-.5.5h-1l-.5.5v2l-.5.5-.5.5-.5.5h-1l-.5.5v3l-.5.5-.5.5-.5.5h-1l-.5.5v2l-.5.5h-1l-.5.5-.5.5h-3l-.5.5-.5.5h-10l-.5-.5-.5-.5h-2l-.5-.5-.5-.5h-4l-.5-.5-.5-.5h-14l-.5.5-.5.5h-1l-.5.5-.5.5-.5.5-.5.5-.5.5v1l-.5.5-.5.5v3l-.5.5-.5.5v5l-.5.5-.5.5v3l-.5.5-.5.5v1l-.5.5-.5.5-.5.5-.5.5-.5.5-.5.5-.5.5h-8l-.5-.5-.5-.5h-3l-.5.5-.5.5h-2l-.5.5-.5.5h-1l-.5.5-.5.5h-2l-.5-.5-.5-.5-.5-.5-.5-.5-.5-.5-.5-.5-.5-.5-.5-.5-.5-.5v-1l-.5-.5-.5-.5-.5-.5-.5-.5-.5-.5h-1l-.5-.5-.5-.5h-1l-.5-.5-.5-.5-.5-.5-.5-.5h-1l-.5-.5-.5-.5-.5-.5-.5-.5-.5-.5-.5-.5h-3l-.5.5-.5.5h-5l-.5.5-.5.5-.5.5v1l-.5.5-.5.5v1l-.5.5-.5.5-.5.5-.5.5-.5.5h-1l-.5.5-.5.5h-2l-.5.5-.5.5-.5.5-.5.5-.5.5-.5.5-.5.5-.5.5h-2l-.5.5-.5.5h-1l-.5.5-.5.5h-1l-.5.5-.5.5h-1l-.5.5-.5.5-.5.5v1l-.5.5-.5.5-.5.5-.5.5-.5.5-.5.5-.5.5h-1l-.5.5-.5.5h-6l-.5-.5-.5-.5h-1l-.5-.5-.5-.5h-1l-.5-.5-.5-.5-.5-.5v-1l-.5-.5-.5-.5v-2l-.5-.5-.5-.5-.5-.5h-2l-.5-.5-.5-.5h-1l-.5-.5-.5-.5h-1l-.5-.5-.5-.5-.5-.5-.5-.5-.5-.5-.5-.5-.5-.5-.5-.5-.5-.5v-1l-.5-.5-.5-.5v-5l-.5-.5-.5-.5-.5-.5h-1l-.5-.5-.5-.5h-1l-.5-.5v-1l-.5-.5-.5-.5v-1l-.5-.5h-7l-.5-.5-.5-.5h-1l-.5-.5-.5-.5h-1l-.5-.5-.5-.5-.5-.5-.5-.5-.5-.5-.5-.5-.5-.5-.5-.5-.5-.5-.5-.5-.5-.5-.5-.5-.5-.5v-1l-.5-.5-.5-.5-.5-.5-.5-.5v-2l-.5-.5-.5-.5v-9l.5-.5.5-.5v-1l.5-.5.5-.5.5-.5.5-.5.5-.5.5-.5.5-.5.5-.5.5-.5.5-.5.5-.5.5-.5.5-.5.5-.5v-1l.5-.5.5-.5.5-.5.5-.5v-1l.5-.5.5-.5v-1l.5-.5.5-.5v-1l.5-.5.5-.5v-2l.5-.5.5-.5v-4l.5-.5.5-.5v-1l.5-.5.5-.5v-1l.5-.5.5-.5.5-.5.5-.5.5-.5.5-.5.5-.5.5-.5v-1l.5-.5.5-.5.5-.5.5-.5.5-.5.5-.5.5-.5.5-.5.5-.5.5-.5v-1l.5-.5.5-.5.5-.5.5-.5v-1l.5-.5.5-.5v-3l.5-.5.5-.5v-1l.5-.5h1l.5-.5.5-.5.5-.5.5-.5h1l.5-.5.5-.5.5-.5.5-.5.5-.5v-1l.5-.5.5-.5v-1l.5-.5.5-.5v-2l.5-.5.5-.5v-2l.5-.5.5-.5v-2l.5-.5.5-.5v-3l.5-.5.5-.5v-4l.5-.5.5-.5v-2l.5-.5.5-.5v-1l.5-.5.5-.5v-2l.5-.5.5-.5v-1l.5-.5.5-.5v-1l.5-.5.5-.5v-1l.5-.5.5-.5.5-.5.5-.5v-1l.5-.5.5-.5v-1l.5-.5.5-.5v-1l.5-.5.5-.5.5-.5.5-.5.5-.5h1l.5-.5.5-.5.5-.5v-1l.5-.5.5-.5.5-.5h1l.5-.5.5-.5.5-.5.5-.5.5-.5v-1l.5-.5.5-.5.5-.5.5-.5.5-.5h1l.5-.5.5-.5h1l.5-.5.5-.5.5-.5.5-.5.5-.5v-1l.5-.5.5-.5v-1l.5-.5.5-.5v-2l.5-.5.5-.5v-2l.5-.5.5-.5v-1l.5-.5.5-.5v-1l.5-.5.5-.5v-1l.5-.5.5-.5.5-.5.5-.5v-1l.5-.5.5-.5.5-.5.5-.5v-1l.5-.5.5-.5v-1l.5-.5.5-.5v-6l-.5-.5-.5-.5-.5-.5-.5-.5-.5-.5-.5-.5-.5-.5-.5-.5-.5-.5-.5-.5-.5-.5h-1l-.5-.5-.5-.5h-5l-.5.5-.5.5-.5.5-.5.5-.5.5-.5.5-.5.5-.5.5-.5.5-.5.5-.5.5-.5.5-.5.5-.5.5-.5.5-.5.5h-1l-.5.5-.5.5h-4l-.5.5-.5.5h-23l-.5-.5-.5-.5h-2l-.5-.5-.5-.5h-1l-.5-.5-.5-.5-.5-.5-.5-.5-.5-.5-.5-.5-.5-.5-.5-.5-.5-.5v-1l-.5-.5-.5-.5-.5-.5-.5-.5-.5-.5h-1l-.5-.5-.5-.5h-3l-.5-.5-.5-.5h-1l-.5-.5-.5-.5-.5-.5-.5-.5-.5-.5v-1l-.5-.5h-3l-.5-.5v-1l-.5-.5-.5-.5v-2l-.5-.5-.5-.5-.5-.5h-1l-.5-.5-.5-.5-.5-.5-.5-.5-.5-.5-.5-.5-.5-.5-.5-.5-.5-.5v-1l-.5-.5-.5-.5v-3l-.5-.5-.5-.5v-4l-.5-.5-.5-.5-.5-.5-.5-.5v-1l-.5-.5-.5-.5-.5-.5-.5-.5-.5-.5-.5-.5-.5-.5-.5-.5v-1l-.5-.5-.5-.5v-3l-.5-.5-.5-.5v-18l.5-.5.5-.5v-2l.5-.5.5-.5v-1l.5-.5.5-.5.5-.5.5-.5v-1l.5-.5.5-.5.5-.5.5-.5.5-.5.5-.5.5-.5.5-.5.5-.5.5-.5v-1l.5-.5.5-.5v-1l.5-.5.5-.5v-2l.5-.5.5-.5v-15l-.5-.5-.5-.5-.5-.5-.5-.5v-4l-.5-.5h-1l-.5-.5v-1l-.5-.5-.5-.5-.5-.5-.5-.5v-2l-.5-.5-.5-.5-.5-.5h-1l-.5-.5-.5-.5-.5-.5-.5-.5h-1l-.5-.5v-1l-.5-.5-.5-.5-.5-.5-.5-.5-.5-.5-.5-.5-.5-.5-.5-.5-.5-.5h-1l-.5-.5-.5-.5h-1l-.5-.5-.5-.5h-2l-.5-.5-.5-.5-.5-.5v-1l-.5-.5-.5-.5v-1l-.5-.5-.5-.5-.5-.5-.5-.5-.5-.5-.5-.5-.5-.5-.5-.5-.5-.5-.5-.5-.5-.5h-1l-.5-.5-.5-.5h-3l-.5-.5-.5-.5-.5-.5v-1l-.5-.5-.5-.5-.5-.5h-1l-.5-.5-.5-.5H64l-.5-.5-.5-.5h-1l-.5-.5-.5-.5h-1l-.5-.5-.5-.5-.5-.5-.5-.5-.5-.5-.5-.5-.5-.5v-1l-.5-.5-.5-.5v-1l-.5-.5-.5-.5-.5-.5-.5-.5-.5-.5h-1l-.5-.5-.5-.5-.5-.5-.5-.5-.5-.5v-1l-.5-.5-.5-.5v-5l-.5-.5-.5-.5-.5-.5-.5-.5v-1l-.5-.5-.5-.5-.5-.5-.5-.5-.5-.5-.5-.5-.5-.5-.5-.5-.5-.5-.5-.5v-3l-.5-.5-.5-.5-.5-.5h-1l-.5-.5-.5-.5h-1l-.5-.5-.5-.5h-1l-.5-.5-.5-.5-.5-.5-.5-.5h-4l-.5-.5-.5-.5h-1l-.5-.5v-1l-.5-.5-.5-.5-.5-.5-.5-.5-.5-.5-.5-.5-.5-.5h-1l-.5-.5-.5-.5-.5-.5-.5-.5-.5-.5-.5-.5-.5-.5-.5-.5-.5-.5v-2l-.5-.5-.5-.5v-4l-.5-.5-.5-.5v-9l.5-.5.5-.5v-7l.5-.5.5-.5v-1l.5-.5.5-.5v-6l.5-.5.5-.5v-10l.5-.5.5-.5v-3l.5-.5.5-.5v-1l.5-.5.5-.5.5-.5.5-.5.5-.5h3l.5-.5.5-.5h14l.5.5.5.5.5.5.5.5.5.5v1l.5.5h1l.5.5v4l.5.5.5.5.5.5.5.5v1l.5.5.5.5v7l.5.5h1l.5.5v3l.5.5.5.5v1l-.5.5-.5.5.5.5h1l.5.5v1l.5.5.5.5.5.5h7l.5-.5.5-.5.5-.5.5-.5h1l.5-.5.5-.5.5-.5.5-.5.5-.5.5-.5.5-.5.5-.5.5-.5.5-.5.5-.5.5-.5.5-.5.5-.5.5-.5.5-.5.5-.5.5-.5h3l.5-.5.5-.5h1l.5-.5.5-.5.5-.5.5-.5h1l.5-.5.5-.5h4l.5-.5.5-.5h1l.5-.5.5-.5.5-.5.5-.5.5-.5.5-.5.5-.5v-1l.5-.5.5-.5.5-.5.5-.5v-1l.5-.5.5-.5.5-.5.5-.5v-1l.5-.5.5-.5.5-.5.5-.5.5-.5.5-.5v-1l.5-.5.5-.5.5-.5h1l.5-.5.5-.5h1l.5-.5.5-.5h4l.5.5.5.5h1l.5.5.5.5.5.5.5.5.5.5v1l.5.5.5.5.5.5.5.5.5.5h1l.5.5.5.5h2l.5-.5.5-.5h2l.5-.5.5-.5h1l.5-.5.5-.5h1l.5-.5.5-.5.5-.5v-1l.5-.5.5-.5.5-.5.5-.5.5-.5.5-.5.5-.5.5-.5.5-.5h1l.5-.5v-2l.5-.5.5-.5v-1l.5-.5.5-.5.5-.5.5-.5v-1l.5-.5h1l.5-.5.5-.5h1l.5-.5.5-.5h7l.5.5.5.5h3l.5.5.5.5h1l.5.5.5.5h2l.5.5.5.5h1l.5.5.5.5h1l.5.5.5.5h2l.5.5.5.5h1l.5.5.5.5h1l.5.5.5.5h1l.5.5.5.5.5.5.5.5h1l.5.5.5.5h1l.5.5.5.5h1l.5.5.5.5.5.5.5.5h1l.5.5.5.5.5.5.5.5h1l.5.5.5.5.5.5.5.5.5.5.5.5.5.5.5.5.5.5.5.5.5.5v1l.5.5.5.5.5.5h2l.5-.5.5-.5h1l.5-.5.5-.5.5-.5v-1l.5-.5.5-.5v-2l.5-.5.5-.5.5-.5h1l.5-.5v-1l.5-.5.5-.5.5-.5.5-.5v-1l.5-.5.5-.5.5-.5.5-.5.5-.5.5-.5.5-.5.5-.5.5-.5.5-.5.5-.5.5-.5.5-.5.5-.5.5-.5h1l.5-.5.5-.5h2l.5-.5.5-.5h13l.5-.5v-1l.5-.5h3l.5-.5.5-.5.5-.5.5-.5.5-.5.5-.5.5-.5.5-.5.5-.5.5-.5.5-.5.5-.5.5-.5.5-.5.5-.5.5-.5.5-.5v-1l.5-.5.5-.5.5-.5.5-.5.5-.5.5-.5.5-.5.5-.5.5-.5.5-.5.5-.5.5-.5.5-.5.5-.5.5-.5h1l.5-.5.5-.5.5-.5v-1l.5-.5.5-.5.5-.5.5-.5v-1l.5-.5.5-.5.5-.5.5-.5v-1l.5-.5.5-.5v-1l.5-.5.5-.5.5-.5.5-.5v-1l.5-.5.5-.5v-1l.5-.5.5-.5.5-.5.5-.5v-1l.5-.5.5-.5.5-.5.5-.5v-1l.5-.5.5-.5.5-.5.5-.5.5-.5.5-.5.5-.5.5-.5.5-.5.5-.5.5-.5.5-.5.5-.5.5-.5.5-.5h1l.5-.5.5-.5.5-.5.5-.5.5-.5.5-.5.5-.5.5-.5.5-.5.5-.5.5-.5.5-.5.5-.5v-2l.5-.5.5-.5.5-.5h1l.5-.5.5-.5h1l.5-.5.5-.5.5-.5.5-.5.5-.5v-1l.5-.5.5-.5.5-.5.5-.5.5-.5.5-.5.5-.5.5-.5.5-.5h1l.5.5.5.5h1l.5.5.5.5h1l.5.5.5.5.5.5.5.5h1l.5.5.5.5.5.5.5.5.5.5.5.5.5.5.5.5h1l.5.5.5.5.5.5.5.5.5.5.5.5.5.5.5.5.5.5v1l.5.5.5.5v1l.5.5.5.5v3l.5.5.5.5v1l.5.5.5-.5.5-.5h1l.5.5.5.5.5.5.5.5.5.5v3l.5.5.5.5.5.5.5.5.5.5.5.5v1l.5.5.5.5.5.5.5.5.5.5.5.5.5.5.5.5.5.5.5.5.5.5h2l.5.5.5.5h1l.5.5.5.5h2l.5.5.5.5h2l.5.5.5.5h1l.5.5.5.5h1l.5.5.5.5h1l.5.5.5.5.5.5.5.5.5.5v1l.5.5.5.5v1l.5.5.5.5v1l.5.5.5.5.5.5.5.5v1l.5.5.5.5.5.5.5.5.5.5.5.5.5.5.5.5.5.5.5.5.5.5.5.5v1l.5.5.5.5v1l.5.5.5.5v4l-.5.5-.5.5-.5.5-.5.5-.5.5-.5.5v2l.5.5h2l.5-.5.5-.5h2l.5.5.5.5h2l.5.5.5.5h1l.5.5.5.5h1l.5.5.5.5.5.5.5.5h1l.5.5.5.5.5.5.5.5.5.5.5.5.5.5.5.5.5.5v3l.5.5.5.5v10l.5.5.5.5.5.5.5.5v2l.5.5.5.5v10l-.5.5-.5.5v3l-.5.5-.5.5v2l-.5.5-.5.5v1l-.5.5-.5.5-.5.5-.5.5v1l-.5.5-.5.5-.5.5-.5.5v1l.5.5.5.5v2l.5.5.5.5.5.5.5.5.5.5.5.5.5.5.5.5.5.5.5.5v2l.5.5.5.5v2l.5.5.5.5v2l.5.5.5.5v4l.5.5.5.5v3l.5.5.5.5v5l-.5.5-.5.5v2l-.5.5-.5.5v1l-.5.5-.5.5v1l-.5.5-.5.5v2l-.5.5-.5.5v6l-.5.5-.5.5-.5.5-.5.5v1l.5.5h9l.5.5.5.5h1l.5.5.5.5.5.5.5.5.5.5.5.5.5.5v1l.5.5.5.5v13l-.5.5-.5.5v1l-.5.5-.5.5v1l-.5.5h-1l-.5.5-.5.5h-1l-.5.5-.5.5h-6l-.5-.5-.5-.5-.5-.5-.5-.5-.5-.5-.5-.5-.5-.5-.5-.5-.5-.5v-1l-.5-.5h-3l-.5.5.5.5.5.5.5.5h1l.5.5v1l.5.5.5.5.5.5.5.5v1l.5.5.5.5.5.5.5.5v1l.5.5.5.5v1l.5.5.5.5v1l.5.5.5.5v1l.5.5.5.5v2l.5.5.5.5.5.5.5.5.5.5.5.5v2l.5.5.5.5.5.5.5.5v2l-.5.5-.5.5-.5.5-.5.5-.5.5-.5.5-.5.5-.5.5-.5.5-.5.5v1l-.5.5-.5.5-.5.5-.5.5v19l-.5.5-.5.5-.5.5-.5.5v12l-.5.5-.5.5v1l-.5.5-.5.5-.5.5-.5.5-.5.5-.5.5v1l-.5.5-.5.5-.5.5-.5.5-.5.5-.5.5-.5.5-.5.5-.5.5-.5.5-.5.5-.5.5-.5.5-.5.5v1l-.5.5-.5.5v1l-.5.5-.5.5v1l-.5.5-.5.5v22l-.5.5-.5.5v2l-.5.5-.5.5v2l-.5.5-.5.5v2l.5.5.5.5v1l.5.5.5.5.5.5.5.5v2l.5.5.5.5.5.5.5.5v1l.5.5.5.5.5.5.5.5.5.5h1l.5.5.5.5.5.5.5.5.5.5.5.5.5.5.5.5.5.5v1l.5.5.5.5v1l.5.5.5.5.5.5.5.5.5.5.5.5v1l.5.5h2l.5.5.5.5h3l.5-.5.5-.5h2l.5-.5.5-.5.5-.5.5-.5.5-.5.5-.5h1l.5-.5.5-.5h4l.5-.5v-1l.5-.5h2l.5-.5.5-.5h10l.5.5.5.5h2l.5.5.5.5h7l.5.5.5.5h1l.5.5.5.5h1l.5.5.5.5h1l.5.5.5.5h1l.5.5.5.5.5.5.5.5h1l.5.5.5.5h1l.5.5.5.5.5.5.5.5h1l.5.5.5.5.5.5.5.5.5.5.5.5h1l.5.5.5.5.5.5.5.5.5.5v1l.5.5.5.5.5.5.5.5.5.5.5.5.5.5.5.5.5.5.5.5.5.5h1l.5.5.5.5.5.5.5.5h1l.5.5.5.5h1l.5.5.5.5h1l.5.5.5.5.5.5.5.5h1l.5.5.5.5.5.5.5.5.5.5.5.5.5.5v1l.5.5.5.5.5.5.5.5.5.5.5.5.5.5.5.5.5.5.5.5.5.5.5.5.5.5.5.5.5.5.5.5.5.5.5.5.5.5.5.5.5.5.5.5.5.5.5.5v1l.5.5.5.5.5.5.5.5v1l.5.5.5.5v1l.5.5.5.5v1l.5.5.5.5.5.5.5.5v1l.5.5.5.5.5.5h1l.5.5.5.5.5.5.5.5h1l.5.5.5.5h1l.5.5.5.5.5.5.5.5h1l.5.5.5.5.5.5.5.5h1l.5.5v1l.5.5.5.5.5.5.5.5.5.5.5.5v2l.5.5.5.5v1l.5.5.5.5v1l.5.5.5.5.5.5h1l.5.5.5.5h8l.5.5.5.5.5.5.5.5h2l.5.5.5.5h7l.5.5.5.5h10l.5.5.5.5h3l.5.5.5.5h1l.5.5.5.5h3l.5-.5.5-.5h4l.5-.5.5-.5h8l.5.5.5.5h1l.5.5.5.5h1l.5.5.5.5.5.5.5.5h1l.5.5.5.5.5.5.5.5.5.5.5.5h1l.5.5.5.5.5.5.5.5.5.5.5.5.5.5.5.5.5.5.5.5.5.5.5.5h1l.5.5.5.5.5.5.5.5.5.5.5.5h1l.5.5.5.5h1l.5.5.5.5.5.5.5.5h1l.5.5.5.5h1l.5.5.5.5h1l.5.5.5.5h2l.5.5.5.5h13l.5-.5.5-.5h5l.5-.5.5-.5h2l.5-.5.5-.5h3l.5-.5.5-.5h1l.5-.5.5-.5h1l.5-.5.5-.5.5-.5.5-.5h1l.5-.5.5-.5h13l.5.5.5.5h2l.5.5.5.5.5.5.5.5h1l.5.5.5.5.5.5v1l.5.5.5-.5.5-.5h1l.5.5.5.5.5.5.5.5.5.5.5.5.5.5.5.5h1l.5.5.5.5h4l.5.5.5.5h3l.5.5.5.5h1l.5.5.5.5h1l.5.5.5.5h1l.5.5.5.5h1l.5.5.5.5h2l.5.5.5.5h1l.5.5.5.5h1l.5.5.5.5h1l.5.5.5.5.5.5.5.5h1l.5.5.5.5h1l.5.5.5.5h1l.5.5.5.5h1l.5.5.5.5h1l.5.5.5.5h1l.5.5.5.5.5.5.5.5h1l.5.5.5.5h1l.5.5.5.5h1l.5.5.5.5h1l.5.5.5.5.5.5.5.5h1l.5.5.5.5h1l.5.5.5.5h1l.5.5.5.5.5.5.5.5h1l.5.5.5.5.5.5.5.5h1l.5.5.5.5h1l.5.5.5.5.5.5.5.5h1l.5.5.5.5.5.5.5.5.5.5.5.5h1l.5.5.5.5.5.5.5.5.5.5.5.5.5.5.5.5.5.5.5.5.5.5v1l.5.5.5.5v1l.5.5.5.5.5.5.5.5.5.5.5.5.5.5h2l.5.5.5.5.5.5v1l.5.5.5.5v1l.5.5.5.5v1l.5.5.5.5v11l.5.5h1l.5.5v1l.5.5.5.5v13l.5.5.5.5v2l-.5.5-.5.5v15l-.5.5-.5.5v3l-.5.5-.5.5.5.5.5.5.5.5h1l.5.5.5.5h1l.5.5.5.5.5.5v1l.5.5.5.5.5.5.5.5.5.5.5.5.5.5h3l.5.5.5.5h2l.5.5.5.5h2l.5.5.5.5h1l.5.5.5.5.5.5.5.5.5.5v1l.5.5.5.5.5.5.5.5.5.5.5.5.5.5h2l.5.5.5.5.5.5.5.5.5.5v1l.5.5.5.5.5.5.5.5v1l.5.5.5.5v1l.5.5.5.5v1l.5.5.5.5v1l.5.5.5.5v1l.5.5.5.5v1l.5.5.5.5v1l.5.5.5.5v2l.5.5.5.5v2l.5.5.5.5v4l.5.5.5.5v3l-.5.5-.5.5v3l-.5.5-.5.5v1l-.5.5-.5.5-.5.5-.5.5v1l-.5.5-.5.5v4l.5.5h1l.5.5.5.5h2l.5.5.5.5.5.5.5.5h1l.5.5.5.5h2l.5.5.5.5.5.5.5.5h1l.5.5.5.5h1l.5.5.5.5h1l.5.5.5.5h1l.5.5.5.5h1l.5.5.5.5.5.5.5.5h1l.5.5.5.5h1l.5.5.5.5.5.5.5.5h1l.5.5.5.5.5.5v2l.5.5h1l.5.5.5.5h1l.5.5.5.5h1l.5.5.5.5h1l.5.5.5.5.5.5v1l.5.5.5-.5.5-.5h24l.5-.5.5-.5h1l.5-.5.5-.5h5l.5-.5.5-.5h19l.5.5.5.5h2l.5.5.5.5.5.5.5.5h31l.5.5.5.5.5.5.5.5h5l.5-.5.5-.5.5-.5.5-.5h2l.5-.5v-2l.5-.5.5-.5.5-.5.5-.5.5-.5.5-.5.5-.5.5-.5.5-.5.5-.5.5-.5.5-.5.5-.5.5-.5.5-.5.5-.5.5-.5h1l.5-.5.5-.5.5-.5.5-.5.5-.5.5-.5.5-.5.5-.5.5-.5.5-.5.5-.5.5-.5.5-.5.5-.5.5-.5.5-.5.5-.5v-1l.5-.5.5-.5v-1l.5-.5.5-.5v-1l.5-.5.5-.5.5-.5.5-.5.5-.5.5-.5.5-.5.5-.5.5-.5h1l.5-.5.5-.5h2l.5-.5.5-.5.5-.5.5-.5h4l.5-.5.5-.5.5-.5.5-.5h8l.5-.5.5-.5h1l.5-.5.5-.5h2l.5-.5.5-.5.5.5.5.5.5.5.5.5.5.5v1l.5.5.5.5.5.5.5.5.5.5.5.5v1l.5.5.5.5v4l.5.5.5.5v1l.5.5h2l.5.5v1l.5.5.5.5v11l-.5.5-.5.5v1l-.5.5-.5.5v1l-.5.5-.5.5v3l.5.5.5.5.5.5.5.5.5.5h11l.5.5.5.5h4l.5.5.5.5h4l.5.5.5.5h3l.5.5.5.5h1l.5.5.5.5h1l.5.5.5.5h1l.5.5.5.5.5.5.5.5.5.5.5.5.5.5v1l.5.5.5.5v2l.5.5.5.5v10l.5.5.5.5v3l.5.5.5.5v1l.5.5.5.5.5.5.5.5.5.5h1l.5.5.5.5.5.5.5.5.5-.5.5-.5h11l.5.5.5.5.5.5.5.5.5.5v1l.5.5.5-.5.5-.5h2l.5.5.5.5h1l.5.5v1l.5.5.5.5.5.5.5.5v2l.5.5h1l.5.5.5.5h1l.5.5.5.5h1l.5.5.5.5.5.5.5.5.5.5.5.5.5.5.5.5.5.5v1l.5.5.5.5v3l.5.5.5.5v1l.5.5.5.5.5.5.5.5.5.5.5.5.5.5.5.5v8l-.5.5-.5.5-.5.5-.5.5-.5.5h-8l-.5-.5-.5-.5-.5-.5-.5-.5-.5-.5v-1l-.5-.5-.5-.5-.5-.5h-3l-.5-.5-.5-.5h-1l-.5-.5-.5-.5h-10l-.5-.5-.5-.5h-1l-.5-.5-.5-.5-.5-.5-.5-.5-.5-.5-.5-.5-.5-.5-.5-.5h-3l-.5-.5-.5-.5h-1l-.5.5v2l-.5.5-.5.5v2l-.5.5-.5.5v3l-.5.5-.5.5v2l-.5.5-.5.5v2l-.5.5-.5.5v2l-.5.5-.5.5v2l-.5.5-.5.5v2l-.5.5-.5.5v1l-.5.5-.5.5v1l-.5.5-.5.5v1l-.5.5-.5.5-.5.5-.5.5-.5.5h-1l-.5.5v1l-.5.5-.5.5v1l-.5.5-.5.5-.5.5-.5.5v1l-.5.5-.5.5v1l-.5.5-.5.5-.5.5-.5.5-.5.5-.5.5-.5.5-.5.5-.5.5-.5.5-.5.5h-4l-.5-.5-.5-.5-.5-.5v-1l-.5-.5-.5-.5v-4l-.5-.5-.5-.5v-3l-.5-.5-.5-.5-.5-.5-.5-.5-.5-.5-.5-.5-.5-.5-.5-.5-.5-.5-.5-.5-.5-.5-.5-.5-.5-.5-.5-.5v-3l-.5-.5h-6l-.5.5-.5.5h-3l-.5.5-.5.5h-1l-.5.5-.5.5-.5.5-.5.5-.5.5-.5.5-.5.5-.5.5-.5.5-.5.5-.5.5-.5.5-.5.5-.5.5-.5.5-.5.5-.5.5-.5.5-.5.5-.5.5-.5.5-.5.5-.5.5-.5.5h-1l-.5.5-.5.5-.5.5-.5.5h-2l-.5.5-.5.5h-2l-.5.5-.5.5h-5l-.5-.5-.5-.5h-1l-.5-.5-.5-.5-.5-.5-.5-.5h-1l-.5-.5-.5-.5h-1l-.5-.5-.5-.5-.5.5v1l-.5.5-.5.5-.5.5-.5.5v1l-.5.5-.5.5-.5.5-.5.5v1l-.5.5-.5.5v2l-.5.5-.5.5v4l-.5.5-.5.5v2l.5.5h1l.5.5.5.5.5.5.5.5.5.5.5.5h4l.5.5.5.5h2l.5.5.5.5h1l.5.5.5.5h1l.5.5.5.5h1l.5.5.5.5h1l.5.5.5.5h1l.5.5.5.5h1l.5.5.5.5h1l.5.5.5.5h1l.5.5.5.5h1l.5.5.5.5.5.5.5.5h1l.5.5.5.5.5.5.5.5.5.5v1l.5.5.5.5v5l-.5.5-.5.5-.5.5-.5.5v1l-.5.5-.5.5-.5.5-.5.5-.5.5-.5.5-.5.5-.5.5-.5.5h-1l-.5.5-.5.5-.5.5-.5.5-.5.5-.5.5h-2l-.5.5-.5.5h-5l-.5.5-.5.5h-1l-.5.5-.5.5h-3l-.5-.5-.5-.5h-1l-.5-.5-.5-.5h-1l-.5-.5-.5-.5h-1l-.5-.5-.5-.5-.5-.5-.5-.5h-1l-.5-.5-.5-.5-.5-.5-.5-.5h-1l-.5-.5-.5-.5-.5-.5-.5-.5h-1l-.5-.5-.5-.5h-1l-.5-.5-.5-.5h-2l-.5-.5-.5-.5h-3l-.5.5-.5.5h-2l-.5.5-.5.5h-1l-.5.5-.5.5-.5.5-.5.5h-1l-.5.5-.5.5h-3l-.5.5-.5.5h-2l-.5-.5-.5-.5h-3l-.5-.5-.5-.5h-1l-.5-.5-.5-.5h-1l-.5-.5-.5-.5-.5-.5-.5-.5-.5-.5v-1l-.5-.5-.5-.5-.5-.5-.5-.5-.5-.5-.5-.5-.5-.5-.5-.5-.5-.5h-2l-.5-.5-.5-.5h-1l-.5-.5-.5-.5h-3l-.5-.5-.5-.5h-1l-.5-.5-.5-.5-.5-.5-.5-.5h-1l-.5-.5-.5-.5-.5-.5-.5-.5-.5-.5v-1l-.5-.5-.5-.5-.5-.5-.5-.5v-1l-.5-.5-.5-.5v-1l-.5-.5-.5-.5v-2l-.5-.5-.5-.5v-2l-.5-.5-.5-.5v-2l.5-.5.5-.5v-2l.5-.5h1l.5-.5.5-.5.5-.5.5-.5h1l.5-.5.5-.5.5-.5.5-.5.5-.5.5-.5.5-.5v-11l-.5-.5-.5-.5v-1l-.5-.5h-2l-.5-.5-.5-.5-.5-.5v-1l-.5-.5-.5.5-.5.5h-1l-.5.5-.5.5h-9l-.5-.5-.5-.5h-1l-.5-.5-.5-.5h-1l-.5-.5-.5-.5h-23l-.5-.5-.5-.5h-3l-.5-.5-.5-.5h-2l-.5-.5-.5-.5h-2l-.5-.5-.5-.5h-2l-.5-.5-.5-.5-.5.5v12l.5.5.5.5.5.5.5.5v3l.5.5h3l.5.5.5.5.5.5v6l-.5.5-.5.5v2l-.5.5-.5.5v1l-.5.5-.5.5v1l-.5.5-.5.5v1l-.5.5-.5.5v1l-.5.5-.5.5v3l-.5.5-.5.5.5.5.5.5v4l-.5.5-.5.5v1l-.5.5-.5.5-.5.5-.5.5-.5.5h-3l-.5-.5-.5-.5h-1l-.5-.5-.5-.5-.5-.5-.5-.5h-1l-.5-.5-.5-.5-.5-.5-.5-.5-.5-.5-.5-.5-.5-.5-.5-.5-.5-.5v-1l-.5-.5-.5-.5-.5-.5-.5-.5-.5-.5-.5-.5-.5-.5h-4l-.5.5v1l-.5.5-.5.5v6l-.5.5-.5.5v2l-.5.5-.5.5v1l-.5.5-.5.5v3l-.5.5-.5.5v2l.5.5.5.5.5.5.5.5.5.5h1l.5.5.5.5.5.5v1l.5.5.5.5.5.5h2l.5.5.5.5h3l.5.5.5.5h2l.5.5.5.5h3l.5.5.5.5h3l.5.5.5.5h2l.5.5.5.5h2l.5.5.5.5.5.5.5.5h1l.5.5.5.5.5.5.5.5h1l.5.5.5.5.5.5.5.5.5.5.5.5.5.5v1l.5.5.5.5.5.5.5.5v1l.5.5.5.5.5.5.5.5.5.5.5.5v5l-.5.5-.5.5v1l-.5.5-.5.5v8l.5.5.5.5v1l.5.5.5.5.5.5.5.5.5.5.5.5.5.5.5.5.5.5.5.5.5.5.5.5v5l-.5.5-.5.5v3l-.5.5-.5.5-.5.5-.5.5.5.5.5.5v5l.5.5h3l.5.5.5.5h3l.5.5.5.5h3l.5.5.5.5h5l.5.5.5.5h4l.5-.5.5-.5h3l.5-.5.5-.5h1l.5-.5.5-.5h1l.5-.5.5-.5h1l.5-.5.5-.5h1l.5-.5.5-.5.5-.5.5-.5.5-.5.5-.5.5-.5.5-.5.5-.5v-1l.5-.5h1l.5-.5.5-.5h8l.5.5.5.5.5.5.5.5.5.5.5.5.5.5v1l.5.5.5.5v3l.5.5h3l.5.5.5.5h1l.5-.5.5-.5h1l.5-.5.5-.5h1l.5-.5.5-.5h9l.5-.5.5-.5h2l.5-.5.5-.5.5-.5.5-.5.5-.5.5-.5h2l.5-.5.5-.5h5l.5.5.5.5h2l.5.5.5.5h1l.5.5.5.5.5.5v1l.5.5.5.5v2l.5.5.5.5v1l.5.5.5.5.5.5h1l.5.5.5.5.5.5.5.5h2l.5.5.5.5h2l.5.5.5.5h6l.5-.5.5-.5h11l.5.5.5.5h2l.5.5.5.5.5.5v1l.5.5.5.5v3l-.5.5-.5.5v1l-.5.5-.5.5-.5.5-.5.5v1l-.5.5-.5.5-.5.5-.5.5v1l-.5.5-.5.5-.5.5-.5.5-.5.5-.5.5-.5.5h-1l-.5.5-.5.5-.5.5-.5.5-.5.5.5.5.5.5.5.5h1l.5.5.5.5h3l.5.5.5.5h3l.5.5.5.5h1l.5.5.5.5h1l.5.5.5.5h1l.5.5.5.5.5.5v2l.5.5h1l.5.5.5.5h1l.5.5.5.5.5.5v4l.5.5.5.5.5.5h2l.5.5v1l.5.5.5.5v1l.5.5h2l.5-.5.5-.5h4l.5.5.5.5h1l.5.5.5.5.5.5v3l.5.5.5.5v5l.5.5h1l.5.5.5.5h1l.5.5.5.5.5.5.5.5h1l.5.5.5.5.5.5.5.5.5.5.5.5.5.5v16l.5.5.5.5v1l.5.5.5.5.5.5.5.5.5.5.5.5v1l.5.5.5.5v5l.5.5.5.5.5.5.5.5.5.5.5.5v7l-.5.5-.5.5v3l-.5.5-.5.5v2l-.5.5-.5.5v11l-.5.5-.5.5v1l-.5.5-.5.5v1l-.5.5-.5.5v1l-.5.5-.5.5v1l-.5.5-.5.5-.5.5h-1l-.5.5-.5.5h-4l-.5.5v2l-.5.5-.5.5-.5.5-.5.5-.5.5-.5.5-.5.5h-8l-.5.5-.5.5h-1l-.5.5-.5.5h-1l-.5.5-.5.5-.5.5-.5.5h-1l-.5.5-.5.5-.5.5-.5.5-.5.5-.5.5-.5.5v1l-.5.5-.5.5-.5.5-.5.5v2l-.5.5-.5.5v4l.5.5.5.5v1l.5.5.5.5.5.5.5.5v1l.5.5.5.5v1l.5.5.5.5v7l-.5.5-.5.5v1l-.5.5-.5.5-.5.5-.5.5-.5.5h-5l-.5.5-.5.5h-1l-.5.5-.5.5-.5.5-.5.5h-1l-.5.5-.5.5h-1l-.5.5-.5.5h-4l-.5.5-.5.5h-29l-.5-.5-.5-.5h-3l-.5-.5-.5-.5h-1l-.5-.5-.5-.5-.5-.5-.5-.5-.5-.5-.5-.5-.5-.5-.5-.5-.5-.5-.5-.5-.5-.5v-1l-.5-.5h-1l-.5.5-.5.5h-10l-.5.5-.5.5h-2l-.5.5-.5.5h-1l-.5.5-.5.5-.5.5-.5.5h-1l-.5.5-.5.5h-1l-.5.5-.5.5-.5.5-.5.5h-1l-.5.5-.5.5h-2l-.5.5-.5.5h-3l-.5.5z"/></svg>